<svg width="512" height="512" xmlns="http://www.w3.org/2000/svg">

 <g>
  <title>background</title>
  <rect fill="none" id="canvas_background" height="402" width="582" y="-1" x="-1"/>
 </g>
 <g>
  <title>Layer 1</title>
  <path fill="#ffffff" id="svg_3" d="m257.095892,477.095892c-10.4,0 -20.8,-0.7 -31.1,-2.2c-2.5,-0.3 -4.3,-2.5 -4.3,-5l0,-181.6c0,-2.1 1.3,-3.9 3.2,-4.7c13.8,-5.2 23.1,-18.6 23.1,-33.4c0,-14.8 -9.3,-28.2 -23.1,-33.4c-2,-0.7 -3.2,-2.6 -3.2,-4.7l0,-168c0,-2.5 1.8,-4.6 4.3,-5c20.5,-2.9 41.7,-2.9 62.2,0c2.5,0.3 4.3,2.5 4.3,5l0,82.3c0,2.1 -1.3,3.9 -3.2,4.7c-13.8,5.2 -23.1,18.6 -23.1,33.4c0,14.8 9.3,28.2 23.1,33.4c2,0.7 3.2,2.6 3.2,4.7l0,267.4c0,2.5 -1.8,4.6 -4.3,5c-10.3,1.4 -20.7,2.1 -31.1,2.1zm-25.4,-11.5c16.8,2 34,2 50.8,0l0,-259.7c-15.9,-7.4 -26.3,-23.6 -26.3,-41.4c0,-17.7 10.5,-33.9 26.3,-41.4l0,-74.5c-16.8,-2 -34,-2 -50.8,0l0,160.3c15.9,7.4 26.3,23.6 26.3,41.4c0,17.7 -10.5,33.9 -26.3,41.4l0,173.9zm55.8,-339.1l0,0l0,0z" class="st1"/>
  <path fill="#16ade1" id="svg_5" d="m197,467.8c-0.5,0 -0.9,-0.1 -1.4,-0.2c-22.1,-6.3 -43.1,-16 -62.2,-28.9c-1.4,-0.9 -2.2,-2.5 -2.2,-4.2l0,-55.8c0,-2.1 1.3,-4 3.2,-4.7c13.9,-5.2 23.2,-18.6 23.2,-33.4c0,-14.8 -9.3,-28.2 -23.2,-33.4c-2,-0.7 -3.2,-2.6 -3.2,-4.7l0,-225.1c0,-1.7 0.8,-3.2 2.2,-4.2c19.1,-12.9 40.1,-22.6 62.2,-28.9c1.5,-0.4 3.1,-0.1 4.4,0.8c1.3,0.9 2,2.4 2,4l0,161.9c0,2.1 -1.3,3.9 -3.2,4.7c-13.8,5.2 -23.1,18.6 -23.1,33.4c0,14.8 9.3,28.2 23.1,33.4c1.9,0.7 3.2,2.6 3.2,4.7l0,175.6c0,1.6 -0.7,3 -2,4c-0.8,0.7 -1.9,1 -3,1zm-55.7,-35.9c15.8,10.3 32.8,18.4 50.8,24.2l0,-165.6c-15.9,-7.4 -26.3,-23.6 -26.3,-41.4c0,-17.7 10.5,-33.9 26.3,-41.4l0,-151.8c-17.9,5.7 -35,13.8 -50.8,24.2l0,219.2c15.9,7.4 26.4,23.7 26.4,41.4c0,17.8 -10.5,34 -26.4,41.4l0,49.8zm55.7,-220.8l0,0l0,0z" class="st0"/>
  <path fill="#ffffff" id="svg_7" d="m107.7,416.6c-1.3,0 -2.5,-0.5 -3.5,-1.4c-21.3,-20.3 -38.1,-44.3 -49.9,-71.1c-12.1,-27.8 -18.3,-57.5 -18.3,-88.1s6.2,-60.3 18.4,-88.1c11.8,-26.9 28.5,-50.8 49.9,-71.1c1.4,-1.4 3.6,-1.8 5.4,-1c1.8,0.8 3,2.6 3,4.6l0,202.3c0,2.1 -1.3,3.9 -3.2,4.7c-13.8,5.2 -23.1,18.6 -23.1,33.4c0,14.8 9.3,28.2 23.1,33.4c1.9,0.7 3.2,2.6 3.2,4.7l0,32.9c0,2 -1.2,3.8 -3,4.6c-0.7,0.1 -1.4,0.2 -2,0.2zm-5,-304.1c-36.7,39 -56.7,89.5 -56.7,143.5s20,104.5 56.7,143.5l0,-17.4c-15.9,-7.4 -26.3,-23.6 -26.3,-41.4c0,-17.7 10.4,-33.9 26.3,-41.4l0,-186.8z" class="st1"/>
  <path fill="#16ade1" id="svg_9" d="m315,467.8c-1.1,0 -2.1,-0.3 -3,-1c-1.3,-0.9 -2,-2.4 -2,-4l0,-261.3c0,-2.1 1.3,-3.9 3.2,-4.7c13.8,-5.2 23.1,-18.6 23.1,-33.4c0,-14.8 -9.3,-28.2 -23.1,-33.4c-1.9,-0.7 -3.2,-2.6 -3.2,-4.7l0,-76.1c0,-1.6 0.7,-3 2,-4c1.3,-0.9 2.9,-1.2 4.4,-0.8c22.1,6.3 43.1,16 62.2,28.9c1.4,0.9 2.2,2.5 2.2,4.2l0,225.3c0,2.1 -1.3,3.9 -3.2,4.7c-13.8,5.2 -23.1,18.6 -23.1,33.4c0,14.8 9.3,28.2 23.1,33.4c2,0.7 3.2,2.6 3.2,4.7l0,55.8c0,1.7 -0.8,3.2 -2.2,4.2c-19.1,12.9 -40.1,22.6 -62.2,28.9c-0.5,-0.2 -1,-0.1 -1.4,-0.1zm5,-263l0,251.2c17.9,-5.7 35,-13.8 50.8,-24.2l0,-49.8c-15.9,-7.4 -26.4,-23.6 -26.4,-41.4c0,-17.7 10.5,-33.9 26.4,-41.4l0,-219.1c-15.8,-10.3 -32.9,-18.4 -50.8,-24.2l0,66.2c15.9,7.4 26.3,23.7 26.3,41.4c0,17.7 -10.4,33.9 -26.3,41.3zm55.7,97.9l0,0l0,0z" class="st0"/>
  <g id="svg_10">
   <path fill="#ffffff" id="svg_11" d="m404.3,416.6c-0.7,0 -1.3,-0.1 -2,-0.4c-1.8,-0.8 -3,-2.6 -3,-4.6l0,-32.9c0,-2.1 1.3,-3.9 3.2,-4.7c13.8,-5.2 23.1,-18.6 23.1,-33.4c0,-14.8 -9.3,-28.2 -23.1,-33.4c-2,-0.7 -3.2,-2.6 -3.2,-4.7l0,-202.1c0,-2 1.2,-3.8 3,-4.6c1.8,-0.8 4,-0.4 5.4,1c21.3,20.3 38.1,44.3 49.9,71.1c12.2,27.8 18.4,57.5 18.4,88.1s-6.2,60.3 -18.4,88.1c-11.8,26.9 -28.5,50.8 -49.9,71.1c-0.9,0.9 -2.1,1.4 -3.4,1.4zm5,-34.5l0,17.4c36.7,-39 56.7,-89.5 56.7,-143.5s-20,-104.5 -56.7,-143.5l0,186.8c15.9,7.4 26.4,23.6 26.4,41.4c0,17.8 -10.5,34 -26.4,41.4z" class="st1"/>
  </g>
 </g>
</svg>